# This file uses centimeters as units for non-parametric coordinates.

mtllib Mage.mtl
g default
v 2.500000 0.000000 -2.500000
v -2.500000 0.000000 -2.500000
v 2.500000 5.000000 -2.500000
v -2.500000 5.000000 -2.500000
v 2.500000 5.000000 2.500000
v -2.500000 5.000000 2.500000
v 2.500000 0.000000 2.500000
v -2.500000 0.000000 2.500000
v 2.500000 2.500000 -2.500000
v -2.500000 2.500000 -2.500000
v -2.500000 2.500000 2.500000
v 2.500000 2.500000 2.500000
vt 0.379826 0.480694
vt 0.394306 0.480694
vt 0.375000 0.495174
vt 0.389479 0.500000
vt 0.375000 0.524132
vt 0.389479 0.519306
vt 0.379826 0.538612
vt 0.394306 0.538612
vt 0.360521 0.480694
vt 0.001992 0.001992
vt 0.998008 0.001992
vt 0.998008 0.998008
vt 0.001992 0.998008
vt 0.379826 0.471041
vt 0.394306 0.471041
vt 0.001992 0.500000
vt 0.389479 0.509653
vt 0.998008 0.500000
vt 0.375000 0.509653
vt 0.360521 0.471041
vt 0.003054 -0.000066
vt 0.999070 -0.000066
vt 0.999070 0.497942
vt 0.003055 0.497942
vt 0.003055 -0.000067
vt 0.999070 -0.000067
vt 0.999071 0.497942
vt 0.003054 0.497941
vt 0.003055 -0.000066
vt 0.999070 -0.000066
vt 0.999070 0.497941
vt 0.003054 0.497942
vn 0.000000 1.000000 -0.000000
vn 0.000000 1.000000 -0.000000
vn 0.000000 1.000000 -0.000000
vn 0.000000 1.000000 -0.000000
vn -0.000000 0.000000 1.000000
vn -0.000000 0.000000 1.000000
vn -0.000000 0.000000 1.000000
vn -0.000000 0.000000 1.000000
vn 0.000000 -1.000000 0.000000
vn 0.000000 -1.000000 0.000000
vn 0.000000 -1.000000 0.000000
vn 0.000000 -1.000000 0.000000
vn -1.000000 0.000000 -0.000000
vn -1.000000 0.000000 -0.000000
vn -1.000000 0.000000 -0.000000
vn -1.000000 0.000000 -0.000000
vn -1.000000 0.000000 -0.000000
vn -1.000000 0.000000 -0.000000
vn 0.000000 0.000000 -1.000000
vn 0.000000 0.000000 -1.000000
vn 0.000000 0.000000 -1.000000
vn 0.000000 0.000000 -1.000000
vn 0.000000 0.000000 -1.000000
vn 0.000000 0.000000 -1.000000
vn 0.000000 0.000000 -1.000000
vn 0.000000 0.000000 -1.000000
vn -0.000000 0.000000 1.000000
vn -0.000000 0.000000 1.000000
vn -0.000000 0.000000 1.000000
vn -0.000000 0.000000 1.000000
vn 1.000000 0.000000 0.000000
vn 1.000000 0.000000 0.000000
vn 1.000000 0.000000 0.000000
vn 1.000000 0.000000 0.000000
vn 1.000000 0.000000 0.000000
vn 1.000000 0.000000 0.000000
vn 1.000000 0.000000 0.000000
vn 1.000000 0.000000 0.000000
s 1
g pCube1
usemtl lambert4SG
f 3/1/1 4/2/2 5/3/3
f 5/3/3 4/2/2 6/4/4
s 2
f 12/19/5 5/3/6 11/17/7
f 11/17/7 5/3/6 6/4/8
s 3
f 7/5/9 8/6/10 1/7/11
f 1/7/11 8/6/10 2/8/12
s 4
f 2/10/13 8/11/14 10/16/15
f 8/11/14 11/18/16 10/16/15
f 11/18/16 6/12/17 10/16/15
f 6/12/17 4/13/18 10/16/15
s 5
f 1/29/19 2/30/20 9/32/21
f 9/32/21 2/30/20 10/31/22
s 6
f 10/15/23 4/2/24 9/14/25
f 9/14/25 4/2/24 3/1/26
s 7
f 8/21/27 7/22/28 11/24/29
f 11/24/29 7/22/28 12/23/30
s 8
f 7/25/31 1/26/32 12/28/33
f 12/28/33 1/26/32 9/27/34
s 9
f 9/14/35 3/1/36 12/20/37
f 12/20/37 3/1/36 5/9/38
